<svg width="22" height="24" viewBox="0 0 22 24" fill="none" xmlns="http://www.w3.org/2000/svg">
<path d="M17.1875 2.53594C19.8945 4.64531 21.6563 8.09531 21.6563 12C21.6563 18.4125 16.8953 23.6109 11.0215 23.625C5.15626 23.6391 0.352352 18.4219 0.343758 12.0187C0.339461 8.11406 2.10118 4.65469 4.80391 2.54063C5.30665 2.15156 6.00704 2.31563 6.30782 2.90156L6.98673 4.21875C7.24024 4.71094 7.11993 5.33438 6.70313 5.67188C4.91993 7.11562 3.78126 9.40312 3.78126 11.9953C3.77696 16.3219 6.98243 19.875 11 19.875C14.9359 19.875 18.2445 16.3969 18.2188 11.9484C18.2059 9.52031 17.1574 7.17656 15.2926 5.66719C14.8758 5.32969 14.7598 4.70625 15.0133 4.21875L15.6922 2.90156C15.993 2.32031 16.6891 2.14687 17.1875 2.53594ZM12.7188 12.375V1.125C12.7188 0.501562 12.259 0 11.6875 0H10.3125C9.74102 0 9.28126 0.501562 9.28126 1.125V12.375C9.28126 12.9984 9.74102 13.5 10.3125 13.5H11.6875C12.259 13.5 12.7188 12.9984 12.7188 12.375Z" fill="#65B79F"/>
</svg>
